<svg xmlns="http://www.w3.org/2000/svg" xmlns:xlink="http://www.w3.org/1999/xlink" width="1080" zoomAndPan="magnify" viewBox="0 0 810 809.999993" height="1080" preserveAspectRatio="xMidYMid meet" version="1.0"><defs><clipPath id="9863116ab8"><path d="M 692 301 L 736.984375 301 L 736.984375 729 L 692 729 Z M 692 301 " clip-rule="nonzero"/></clipPath><clipPath id="4948208ae3"><path d="M 73.234375 301 L 328 301 L 328 729 L 73.234375 729 Z M 73.234375 301 " clip-rule="nonzero"/></clipPath><clipPath id="dc1925b678"><path d="M 73.234375 81 L 736.984375 81 L 736.984375 729 L 73.234375 729 Z M 73.234375 81 " clip-rule="nonzero"/></clipPath></defs><path fill="#5284a3" d="M 360.910156 169.367188 L 360.910156 213.550781 L 294.613281 213.550781 Z M 360.910156 169.367188 " fill-opacity="1" fill-rule="nonzero"/><path fill="#5284a3" d="M 449.304688 169.367188 L 449.304688 213.550781 L 515.597656 213.550781 Z M 449.304688 169.367188 " fill-opacity="1" fill-rule="nonzero"/><path fill="#5284a3" d="M 360.910156 257.730469 L 360.910156 301.914062 L 250.417969 301.910156 L 206.21875 331.367188 L 162.023438 301.910156 L 228.316406 257.730469 Z M 360.910156 257.730469 " fill-opacity="1" fill-rule="nonzero"/><path fill="#5284a3" d="M 162.023438 581.726562 L 360.910156 449.183594 L 360.910156 508.089844 L 162.023438 640.636719 Z M 162.023438 581.726562 " fill-opacity="1" fill-rule="nonzero"/><g clip-path="url(#9863116ab8)"><path fill="#5284a3" d="M 692.386719 331.367188 L 736.585938 301.910156 L 736.585938 699.546875 L 692.386719 729 Z M 692.386719 331.367188 " fill-opacity="1" fill-rule="nonzero"/></g><path fill="#5284a3" d="M 648.191406 360.820312 L 648.191406 419.730469 L 526.648438 500.730469 L 482.453125 471.273438 Z M 648.191406 360.820312 " fill-opacity="1" fill-rule="nonzero"/><path fill="#9ac1d9" d="M 449.304688 257.730469 L 449.304688 301.914062 L 559.796875 301.910156 L 603.992188 331.367188 L 648.191406 301.910156 L 581.894531 257.730469 Z M 449.304688 257.730469 " fill-opacity="1" fill-rule="nonzero"/><path fill="#9ac1d9" d="M 405.105469 478.636719 L 692.386719 670.089844 L 692.386719 729 L 405.105469 537.546875 Z M 405.105469 478.636719 " fill-opacity="1" fill-rule="nonzero"/><g clip-path="url(#4948208ae3)"><path fill="#ece46f" d="M 73.628906 301.910156 L 327.761719 471.273438 L 283.5625 500.726562 L 117.824219 390.273438 L 117.824219 729 L 73.628906 699.546875 Z M 73.628906 301.910156 " fill-opacity="1" fill-rule="nonzero"/></g><path fill="#ece46f" d="M 405.105469 139.914062 L 449.304688 169.367188 L 449.304688 449.183594 L 648.191406 581.726562 L 648.191406 360.820312 L 692.386719 331.367188 L 692.386719 670.089844 L 405.105469 478.636719 Z M 405.105469 139.914062 " fill-opacity="1" fill-rule="nonzero"/><path fill="#ece46f" d="M 405.105469 537.546875 L 438.253906 559.636719 L 405.105469 581.730469 L 371.957031 559.636719 Z M 405.105469 537.546875 " fill-opacity="1" fill-rule="nonzero"/><g clip-path="url(#dc1925b678)"><path fill="#f2913d" d="M 117.824219 390.273438 L 162.023438 419.730469 L 162.023438 640.636719 L 360.910156 508.089844 L 360.910156 449.183594 L 327.761719 471.273438 L 73.628906 301.910156 L 405.105469 81.003906 L 736.585938 301.910156 L 482.453125 471.273438 L 449.304688 449.183594 L 449.304688 434.457031 L 648.191406 301.910156 L 581.894531 257.730469 L 449.304688 257.730469 L 449.304688 213.550781 L 515.597656 213.550781 L 405.105469 139.914062 L 405.105469 537.546875 L 117.824219 729 Z M 162.023438 301.910156 L 228.316406 257.730469 L 360.910156 257.730469 L 360.910156 434.457031 Z M 360.910156 169.367188 L 360.910156 213.550781 L 294.613281 213.550781 Z M 360.910156 169.367188 " fill-opacity="1" fill-rule="evenodd"/></g></svg>