<svg width="410" height="420" viewBox="0 0 410 420" fill="none" xmlns="http://www.w3.org/2000/svg" class="transition-colors duration-300 ease-in-out group">
  <path d="M235.208 72.188L83.282 300.077C61.329 333.006 10 317.465 10 277.889V222.111C10 214.214 12.3375 206.494 16.718 199.923L131.459 27.812C138.877 16.684 151.367 10 164.741 10H201.926C233.874 10 252.929 45.6058 235.208 72.188Z" fill="#0075FF" stroke="white" stroke-width="20" stroke-linejoin="round"/>
  <path d="M368.541 72.188L155.208 392.188C147.789 403.316 135.3 410 121.926 410H84.7407C52.7929 410 33.7372 374.394 51.4587 347.812L264.792 27.812C272.211 16.684 284.7 10 298.074 10H335.259C367.207 10 386.263 45.6058 368.541 72.188Z"  fill="#111111"  stroke="white" stroke-width="20" stroke-linejoin="round"/>
  <path d="M184.792 347.812L264.792 227.812C272.211 216.684 284.7 210 298.074 210H327.412C358.635 210 377.82 244.175 361.56 270.83L288.36 390.83C281.098 402.736 268.158 410 254.212 410H218.074C186.126 410 167.071 374.394 184.792 347.812Z"  fill="#83dcff" stroke="white" stroke-width="20" stroke-linejoin="round"/>
  <path d="M101.875 72.188L83.282 100.077C61.329 133.006 10 117.465 10 77.889V50C10 27.9086 27.9086 10 50 10H68.5927C100.54 10 119.596 45.6058 101.875 72.188Z" fill="#111111" stroke="white" stroke-width="20" stroke-linejoin="round"/>
</svg>