<svg xmlns="http://www.w3.org/2000/svg" width="500" height="500" viewBox="0 0 500 500"><defs><style>.a{fill:none;}.b{fill:#5284a3;}.c{fill:#9ac1d9;}.d{fill:#ece46f;}.e{fill:#f2913d;}</style></defs><path class="a" d="M223.33,276.62v0Zm-120-53.29,0,0v0Zm53.34-35.56L130,205.55l93.32,62.2v-80Zm-53.32,0h0ZM250,294.42h0v0l20,13.33h0l0,0ZM450,187.77v0Zm-53.32,35.56L296.7,290v0l99.95-66.63h0ZM343.3,187.77H276.66v80L370,205.56Zm53.3,0v0l0,0v0Zm-120-80,0,0v0Z"/><polygon class="b" points="316.59 134.44 276.66 134.44 276.66 107.82 316.59 134.44"/><polygon class="c" points="396.61 187.78 369.97 205.56 343.31 187.77 276.66 187.77 276.66 161.11 356.59 161.11 396.6 187.77 396.61 187.78"/><polygon class="b" points="223.33 107.78 223.33 134.44 183.33 134.44 223.31 107.78 223.33 107.78"/><line class="a" x1="450" y1="392.16" x2="449.98" y2="392.15"/><polyline class="a" points="50.01 187.79 50.01 187.78 50 187.78"/><line class="a" x1="103.36" y1="187.78" x2="103.35" y2="187.76"/><line class="a" x1="76.7" y1="169.99" x2="76.68" y2="169.98"/><polygon class="d" points="270.01 343.28 249.99 356.63 230.02 343.32 249.99 330 250.03 329.96 250.04 329.96 270.01 343.28"/><line class="a" x1="50.01" y1="392.22" x2="50" y2="392.21"/><line class="a" x1="103.36" y1="427.79" x2="103.33" y2="427.77"/><polyline class="a" points="50.02 187.78 50.01 187.78 50.01 187.79"/><line class="a" x1="276.69" y1="312.21" x2="276.66" y2="312.22"/><line class="a" x1="50.01" y1="392.2" x2="50" y2="392.21"/><line class="a" x1="270.02" y1="307.75" x2="269.99" y2="307.78"/><line class="a" x1="396.64" y1="187.78" x2="396.61" y2="187.79"/><polygon class="b" points="396.64 223.34 396.64 258.87 323.35 307.73 303.37 294.41 296.7 289.97 396.64 223.34"/><line class="a" x1="296.67" y1="325.53" x2="296.64" y2="325.54"/><line class="a" x1="423.31" y1="409.96" x2="423.29" y2="409.98"/><line class="a" x1="450" y1="392.16" x2="449.98" y2="392.19"/><line class="a" x1="396.67" y1="392.19" x2="396.65" y2="392.21"/><polygon class="b" points="223.33 161.11 223.33 187.77 156.67 187.77 130.01 205.55 103.36 187.77 103.36 187.76 143.33 161.11 223.33 161.11"/><polygon class="d" points="203.32 289.99 196.69 294.41 176.68 307.75 103.36 258.89 76.69 241.09 76.67 241.09 76.67 445.54 50.01 427.76 50.01 187.78 76.67 205.56 103.33 223.33 203.32 289.99"/><line class="a" x1="250.02" y1="294.42" x2="249.99" y2="294.44"/><polygon class="b" points="223.33 276.62 223.33 312.21 103.36 392.2 103.36 356.63 176.68 307.75 203.32 289.99 223.33 276.62"/><polyline class="a" points="449.96 187.78 449.96 187.77 449.97 187.77"/><polygon class="c" points="423.31 409.99 423.31 445.49 396.67 427.73 396.64 427.7 370.02 409.96 276.66 347.71 270.01 343.28 250.04 329.96 250.03 329.96 249.99 329.94 249.99 294.44 269.98 307.77 269.99 307.77 276.66 312.21 296.64 325.54 396.64 392.21 423.29 409.98 423.31 409.99"/><polygon class="b" points="449.97 223.32 449.95 223.34 449.97 427.76 423.35 445.51 423.31 445.49 423.31 374.44 423.36 374.4 423.31 374.36 423.31 205.56 449.96 187.78 449.97 187.8 449.97 223.32"/><polygon class="d" points="423.31 241.1 423.3 241.1 423.31 409.94 396.67 392.18 396.64 392.17 250.01 294.42 249.99 294.41 249.99 258.87 250.03 258.85 249.99 90.04 276.63 107.8 276.66 107.82 276.66 276.6 296.7 289.95 296.7 289.97 323.35 307.73 396.64 356.59 396.64 223.33 423.29 205.57 423.3 205.57 423.31 205.58 423.31 241.1"/><path class="e" d="M450,187.77,250,54.46h0L50,187.77h0v0L203.32,290l20-13.37h0v35.54l0,0,0,0-120,80V258.89l-26.67-17.8h0V445.54L250,330V90l0,0h0v0l66.6,44.4H276.66v26.67h79.93l40,26.66h0v0l0,0-119.95,80v8.83l20,13.35L450,187.79Zm-226.62,80L130,205.55l-26.65-17.78h0l40-26.65h80Zm0-133.31h-40l40-26.66h0Z"/></svg>