<svg xmlns="http://www.w3.org/2000/svg" width="835.29" height="835.29" viewBox="0 0 835.29 835.29"><defs><style>.a{fill:#f2913d;}.b,.h{fill:#fff;}.c{fill:none;}.d{fill:#5284a3;}.e{fill:#9ac1d9;}.f{fill:#ece46f;}.g{fill:#262907;}.h{font-size:33px;font-family:AUTHENTICSans-90, AUTHENTIC Sans;}</style></defs><circle class="a" cx="417.65" cy="417.65" r="324.49"/><circle class="b" cx="417.65" cy="417.65" r="262.1"/><path class="c" d="M395.24,372.71v0h0ZM294.43,327.94l0,0v0Zm44.81-29.87L316.85,313l78.39,52.26V298.07Zm-44.79,0h0Zm123.21,89.6h0v0l16.79,11.2h0l0,0Zm168-89.59h0Zm-44.79,29.87-84,56h0l84-56h0ZM496,298.07H440v67.2L518.43,313Zm44.77,0h0l0,0v0ZM440,230.89h0v0Z"/><polygon class="d" points="473.59 253.27 440.04 253.27 440.04 230.9 473.59 253.27"/><polygon class="e" points="540.81 298.08 518.43 313.01 496.03 298.07 440.04 298.07 440.04 275.67 507.19 275.67 540.8 298.07 540.81 298.08"/><polygon class="d" points="395.24 230.87 395.24 253.27 361.64 253.27 395.23 230.87 395.24 230.87"/><line class="c" x1="585.66" y1="469.77" x2="585.64" y2="469.76"/><polyline class="c" points="249.64 298.08 249.64 298.07 249.63 298.07"/><line class="c" x1="294.46" y1="298.07" x2="294.45" y2="298.06"/><line class="c" x1="272.06" y1="283.13" x2="272.04" y2="283.12"/><polygon class="f" points="434.46 428.71 417.64 439.92 400.86 428.74 417.64 417.55 417.67 417.52 417.68 417.52 434.46 428.71"/><line class="c" x1="249.64" y1="469.82" x2="249.63" y2="469.81"/><line class="c" x1="294.46" y1="499.7" x2="294.43" y2="499.68"/><polyline class="c" points="249.65 298.07 249.64 298.07 249.64 298.08"/><line class="c" x1="440.07" y1="402.6" x2="440.04" y2="402.61"/><line class="c" x1="249.64" y1="469.8" x2="249.63" y2="469.81"/><line class="c" x1="434.46" y1="398.86" x2="434.44" y2="398.88"/><line class="c" x1="540.83" y1="298.07" x2="540.81" y2="298.08"/><polygon class="d" points="540.84 327.95 540.84 357.8 479.27 398.84 462.48 387.65 456.88 383.92 540.84 327.95"/><line class="c" x1="456.85" y1="413.79" x2="456.83" y2="413.8"/><line class="c" x1="563.24" y1="484.72" x2="563.22" y2="484.74"/><line class="c" x1="585.66" y1="469.77" x2="585.64" y2="469.79"/><line class="c" x1="540.86" y1="469.79" x2="540.84" y2="469.81"/><polygon class="d" points="395.24 275.67 395.24 298.07 339.24 298.07 316.85 313 294.46 298.07 294.46 298.06 328.04 275.67 395.24 275.67"/><polygon class="f" points="378.43 383.94 372.86 387.65 356.05 398.86 294.46 357.81 272.05 342.86 272.04 342.86 272.04 514.61 249.64 499.68 249.64 298.08 272.04 313.01 294.43 327.94 378.43 383.94"/><line class="c" x1="417.66" y1="387.66" x2="417.64" y2="387.68"/><polygon class="d" points="395.24 372.71 395.24 402.61 294.46 469.8 294.46 439.92 356.05 398.86 378.43 383.94 395.24 372.71"/><polyline class="c" points="585.63 298.08 585.63 298.07 585.64 298.07"/><polygon class="e" points="563.24 484.75 563.24 514.57 540.86 499.65 540.84 499.63 518.47 484.72 440.04 432.43 434.46 428.71 417.68 417.52 417.67 417.52 417.64 417.5 417.64 387.68 434.43 398.88 434.44 398.88 440.04 402.61 456.83 413.8 540.84 469.81 563.22 484.74 563.24 484.75"/><polygon class="d" points="585.64 327.93 585.62 327.95 585.64 499.68 563.27 514.59 563.24 514.57 563.24 454.88 563.28 454.85 563.24 454.82 563.24 313.01 585.63 298.08 585.64 298.09 585.64 327.93"/><polygon class="f" points="563.24 342.87 563.23 342.87 563.24 484.71 540.86 469.79 540.84 469.78 417.66 387.66 417.64 387.65 417.64 357.8 417.67 357.78 417.64 215.97 440.02 230.89 440.04 230.9 440.04 372.69 456.88 383.91 456.88 383.92 479.27 398.84 540.84 439.89 540.84 327.94 563.22 313.02 563.23 313.02 563.24 313.03 563.24 342.87"/><path class="a" d="M585.62,298.07l-168-112h0l-168,112h0l128.79,85.86,16.81-11.23h0v29.84l0,0,0,0L294.46,469.8v-112l-22.41-14.95h0V514.61l145.6-97.06V216l0,0h0v0l55.95,37.3H440v22.4h67.15l33.61,22.4h0v0l0,0L440,365.27v7.42l16.84,11.22,128.75-85.83ZM395.24,365.26,316.85,313l-22.39-14.93h0L328,275.67h67.2Zm0-112h-33.6l33.59-22.4h0Z"/><path class="g" d="M282.61,535.48h6.75l25.92,64.78h-5.86l-8.08-20h-31l-7.82,20h-6Zm16.51,39.8-13.05-33.51-13.41,33.51Z"/><path class="g" d="M346.81,575.54V535.48h5.42v39.88c0,13.87,7.19,21.37,20.33,21.37,13.5,0,20.78-7.41,20.78-21.28v-40h5.41v40.14c0,16.71-9.5,26.27-26.19,26.27S346.81,592.51,346.81,575.54Z"/><path class="g" d="M435.25,535.48H444l23.35,57,23-57h8.79v64.78h-5.33V540.57l-24.06,59.69H465l-24.42-59.52v59.52h-5.33Z"/><path class="g" d="M534.26,581.74l5.41-.86c1.6,10.16,8.53,15.76,19.63,15.76,10.92,0,18.47-5.34,18.47-12.92,0-6.55-5.6-10.94-19.72-14.82-15.18-4.22-21.39-10.42-21.39-18.95,0-9.82,8.34-16,21.57-16s21.49,6.2,23.89,17.57l-5.33,1.12c-1.87-9-8-13.6-18.56-13.6-9.85,0-16,4-16,10.59,0,6.2,5.24,10.51,18.73,14.47,16.88,4.91,22.38,10.94,22.38,19.55,0,11.12-9.23,18.26-23.62,18.26S536.48,594.83,534.26,581.74Z"/><text class="h" transform="matrix(0.04, -1, 1, 0.04, 137.64, 410.16)"> </text><text class="h" transform="matrix(0.12, -0.99, 0.99, 0.12, 138.27, 394.65)">A</text><text class="h" transform="translate(142.09 366.45) rotate(-77.58)">d</text><text class="h" transform="matrix(0.3, -0.95, 0.95, 0.3, 147.53, 342.85)">e</text><text class="h" transform="matrix(0.36, -0.93, 0.93, 0.36, 154.79, 320.71)">l</text><text class="h" transform="translate(159.31 308.9) rotate(-65.25)">a</text><text class="h" transform="translate(169.55 287.52) rotate(-61.44)">i</text><text class="h" transform="matrix(0.54, -0.84, 0.84, 0.54, 175.95, 275.75)">d</text><text class="h" transform="translate(189.14 255.43) rotate(-52.75)">e</text><text class="h" transform="matrix(0.66, -0.75, 0.75, 0.66, 203.48, 237.1)"> </text><text class="h" transform="translate(213.67 225.38) rotate(-44.3)">U</text><text class="h" transform="translate(234.4 205.63) rotate(-38.92)">n</text><text class="h" transform="translate(253.59 190.6) rotate(-35.07)">i</text><text class="h" transform="matrix(0.85, -0.52, 0.52, 0.85, 264.56, 182.93)">v</text><text class="h" transform="matrix(0.89, -0.45, 0.45, 0.89, 283.98, 171.31)">e</text><text class="h" transform="translate(304.89 161.14) rotate(-22.59)">r</text><text class="h" transform="translate(320.32 154.82) rotate(-18.58)">s</text><text class="h" transform="translate(341.52 148.02) rotate(-14.9)">i</text><text class="h" transform="translate(354.53 144.65) rotate(-11.71)">t</text><text class="h" transform="translate(371.67 141.21) rotate(-7.67)">y</text><text class="h" transform="translate(393.47 138.57) rotate(-3.88)"> </text><text class="h" transform="translate(408.95 137.37) rotate(1.05)">M</text><text class="h" transform="translate(441.94 138.47) rotate(6.79)">a</text><text class="h" transform="matrix(0.98, 0.19, -0.19, 0.98, 465.42, 141.57)">t</text><text class="h" transform="translate(482.54 144.97) rotate(15.3)">h</text><text class="h" transform="matrix(0.94, 0.35, -0.35, 0.94, 505.88, 151.61)">e</text><text class="h" transform="translate(527.57 159.57) rotate(26.06)">m</text><text class="h" transform="matrix(0.85, 0.53, -0.53, 0.85, 557.81, 174.95)">a</text><text class="h" transform="translate(577.74 187.74) rotate(36.15)">t</text><text class="h" transform="matrix(0.77, 0.63, -0.63, 0.77, 591.81, 198.27)">i</text><text class="h" transform="translate(602.15 206.76) rotate(42.99)">c</text><text class="h" transform="matrix(0.67, 0.74, -0.74, 0.67, 618.65, 222.44)">s</text><text class="h" transform="translate(633.45 239.06) rotate(51.37)"> </text><text class="h" transform="matrix(0.56, 0.83, -0.83, 0.56, 643.16, 251.19)">S</text><text class="h" transform="translate(658.14 273.68) rotate(61.1)">o</text><text class="h" transform="matrix(0.41, 0.91, -0.91, 0.41, 670.1, 295.94)">c</text><text class="h" transform="matrix(0.35, 0.94, -0.94, 0.35, 679.08, 316.93)">i</text><text class="h" transform="matrix(0.28, 0.96, -0.96, 0.28, 683.71, 329.5)">e</text><text class="h" transform="translate(690.01 351.85) rotate(77.72)">t</text><text class="h" transform="translate(693.62 368.95) rotate(81.77)">y</text><text class="h" transform="translate(696.47 390.72) rotate(85.56)"> </text><text class="h" transform="translate(697.56 406.34) rotate(89.07)">•</text><text class="h" transform="translate(697.64 425.6) rotate(92.6)"> </text><text class="h" transform="translate(696.98 441.14) rotate(97.12)">A</text><text class="h" transform="translate(693.12 469.32) rotate(102.52)">d</text><text class="h" transform="matrix(-0.3, 0.95, -0.95, -0.3, 687.62, 492.94)">e</text><text class="h" transform="translate(680.34 515.03) rotate(111.1)">l</text><text class="h" transform="matrix(-0.42, 0.91, -0.91, -0.42, 675.79, 526.83)">a</text><text class="h" transform="translate(665.5 548.22) rotate(118.66)">i</text><text class="h" transform="translate(659.1 559.95) rotate(122.51)">d</text><text class="h" transform="matrix(-0.61, 0.79, -0.79, -0.61, 645.86, 580.27)">e</text><text class="h" transform="translate(631.51 598.55) rotate(131.26)"> </text><text class="h" transform="translate(621.28 610.27) rotate(135.81)">U</text><text class="h" transform="translate(600.51 629.98) rotate(141.18)">n</text><text class="h" transform="translate(581.32 644.97) rotate(145.02)">i</text><text class="h" transform="translate(570.34 652.62) rotate(148.71)">v</text><text class="h" transform="translate(550.89 664.21) rotate(153.41)">e</text><text class="h" transform="matrix(-0.92, 0.38, -0.38, -0.92, 529.97, 674.34)">r</text><text class="h" transform="translate(514.5 680.65) rotate(161.53)">s</text><text class="h" transform="matrix(-0.97, 0.26, -0.26, -0.97, 493.3, 687.4)">i</text><text class="h" transform="matrix(-0.98, 0.2, -0.2, -0.98, 480.28, 690.75)">t</text><text class="h" transform="translate(463.13 694.16) rotate(172.43)">y</text><text class="h" transform="translate(441.32 696.77) rotate(176.22)"> </text><text class="h" transform="translate(425.87 697.93) rotate(-178.85)">M</text><text class="h" transform="translate(392.89 696.78) rotate(-173.12)">a</text><text class="h" transform="translate(369.39 693.63) rotate(-168.9)">t</text><text class="h" transform="translate(352.28 690.21) rotate(-164.6)">h</text><text class="h" transform="translate(328.96 683.53) rotate(-159.71)">e</text><text class="h" transform="translate(307.29 675.53) rotate(-153.84)">m</text><text class="h" transform="translate(277.07 660.1) rotate(-147.96)">a</text><text class="h" transform="translate(257.16 647.28) rotate(-143.76)">t</text><text class="h" transform="translate(243.11 636.72) rotate(-140.6)">i</text><text class="h" transform="matrix(-0.73, -0.68, 0.68, -0.73, 232.76, 628.2)">c</text><text class="h" transform="translate(216.32 612.51) rotate(-132.35)">s</text><text class="h" transform="translate(201.54 595.87) rotate(-128.54)"> </text><text class="h" transform="matrix(-0.56, -0.83, 0.83, -0.56, 191.83, 583.7)">S</text><text class="h" transform="translate(176.91 561.2) rotate(-118.8)">o</text><text class="h" transform="translate(164.97 538.9) rotate(-113.87)">c</text><text class="h" transform="translate(156.03 517.91) rotate(-110.15)">i</text><text class="h" transform="translate(151.43 505.33) rotate(-106.37)">e</text><text class="h" transform="translate(145.17 482.96) rotate(-102.18)">t</text><text class="h" transform="translate(141.59 465.85) rotate(-98.13)">y</text><text class="h" transform="translate(138.77 444.07) rotate(-94.34)"> </text><text class="h" transform="matrix(-0.02, -1, 1, -0.02, 137.72, 428.47)">•</text></svg>